# Blender v2.69 (sub 0) OBJ File: ''
# www.blender.org
mtllib bat.mtl
o Cube.001
v -0.733653 -0.003759 0.056499
v 1.079574 -0.025855 0.057712
v 0.852902 0.284893 0.279069
v -1.212990 0.392698 -0.331841
v -0.728916 0.395284 0.245455
v 1.597738 0.381425 -0.352786
v 1.084311 0.373188 0.246668
v 0.144069 0.090610 0.351099
vt 0.000000 0.000000
vt 1.000000 0.000000
vt 1.000000 1.000000
vt 0.000000 1.000000
vn -0.007658 -0.583869 0.811812
vn 0.003952 0.999962 -0.007794
vn -0.008113 -0.704722 -0.709437
vn 0.650409 -0.064680 0.756826
vn 0.003470 0.336470 0.941688
vn -0.328626 0.427568 0.842135
vn 0.214823 -0.912672 -0.347680
vn 0.012165 0.999634 0.024155
vn -0.008113 -0.704721 -0.709438
vn 0.376507 -0.872837 0.310481
vn 0.003470 0.336468 0.941688
vn -0.346472 -0.890628 0.294514
usemtl Material.001
s off
f 1/1/1 2/2/1 3/3/1
f 4/1/2 5/2/2 6/4/2
f 1/1/3 4/2/3 6/3/3
f 2/1/4 6/2/4 3/4/4
f 3/1/5 7/2/5 5/3/5
f 4/1/6 1/2/6 8/3/6
f 8/4/7 1/1/7 3/3/7
f 5/2/8 7/3/8 6/4/8
f 2/4/9 1/1/9 6/3/9
f 6/2/10 7/3/10 3/4/10
f 8/4/11 3/1/11 5/3/11
f 5/4/12 4/1/12 8/3/12
